name analog
datacolumns 19
datarows 45
range 0.5465000000000001 0.5685000000000001
endheader
time	ground_force_vx	ground_force_vy	ground_force_vz	ground_force_px	ground_force_py	ground_force_pz	l_ground_force_vx	l_ground_force_vy	l_ground_force_vz	l_ground_force_px	l_ground_force_py	l_ground_force_pz	ground_torque_x	ground_torque_y	ground_torque_z	l_ground_torque_x	l_ground_torque_y	l_ground_torque_z
0.5465000000000001	-0.0	-0.0	-0.0	6.066825866699219	23.88745880126953	-303.7337341308594	-1.247966170310974	-28.089290618896484	-343.24566650390625	-0.0	-0.0	-0.0	-0.0	-0.0	-0.0	88614.375	16011.5947265625	-3330.8974609375
0.5470000000000002	-0.0	-0.0	-0.0	7.849454879760742	25.40216445922852	-311.8635559082031	-0.8842536807060242	-27.733009338378903	-343.59326171875	-0.0	-0.0	-0.0	-0.0	-0.0	-0.0	89186.7109375	15162.2197265625	-3181.725341796875
0.5475000000000001	-0.0	-0.0	-0.0	8.297263145446777	26.828479766845703	-325.28009033203125	0.0013634879142045	-27.648759841918945	-346.36376953125	-0.0	-0.0	-0.0	-0.0	-0.0	-0.0	89385.03125	14401.1015625	-2944.2177734375
0.548	-0.0	-0.0	-0.0	10.52678108215332	28.789060592651367	-338.34893798828125	1.3332781791687012	-27.6498966217041	-347.7601623535156	-0.0	-0.0	-0.0	-0.0	-0.0	-0.0	90177.1171875	13833.3876953125	-2674.088623046875
0.5485000000000001	-0.0	-0.0	-0.0	11.68653964996338	30.126075744628903	-352.1204833984375	2.582464694976806	-27.47172164916992	-350.1990966796875	-0.0	-0.0	-0.0	-0.0	-0.0	-0.0	91223.2109375	13201.7333984375	-2197.3974609375
0.5490000000000002	-0.0	-0.0	-0.0	13.203402519226074	31.997732162475582	-369.42425537109375	4.884932994842529	-27.55520248413086	-355.08721923828125	-0.0	-0.0	-0.0	-0.0	-0.0	-0.0	92680.1171875	12516.771484375	-1485.1646728515625
0.5495000000000001	-0.0	-0.0	-0.0	15.610723495483398	33.95741271972656	-382.4894714355469	8.875443458557129	-27.47456359863281	-362.7685546875	-0.0	-0.0	-0.0	-0.0	-0.0	-0.0	94534.5859375	11983.2431640625	-799.4060668945312
0.55	-0.0	-0.0	-0.0	17.30705451965332	35.47346878051758	-399.4380187988281	13.041521072387695	-27.99281883239746	-370.8071594238281	-0.0	-0.0	-0.0	-0.0	-0.0	-0.0	97078.21875	11458.8056640625	478.8677368164063
0.5505000000000001	-0.0	-0.0	-0.0	19.268115997314453	37.2562370300293	-411.0907287597656	18.46164894104004	-27.994070053100582	-381.2581176757813	-0.0	-0.0	-0.0	-0.0	-0.0	-0.0	99528.8671875	10775.5673828125	2026.4530029296875
0.5510000000000002	-0.0	-0.0	-0.0	20.69683837890625	38.77276992797852	-421.6871948242188	25.20290184020996	-28.351261138916016	-391.0675964355469	-0.0	-0.0	-0.0	-0.0	-0.0	-0.0	102655.375	10274.5810546875	4016.5771484375
0.5515000000000001	-0.0	-0.0	-0.0	23.283531188964844	40.64181900024414	-433.7082214355469	32.38784408569336	-29.411121368408203	-403.9783630371094	-0.0	-0.0	-0.0	-0.0	-0.0	-0.0	106157.2109375	9862.56640625	5920.95556640625
0.552	-0.0	-0.0	-0.0	25.24283218383789	41.80216217041016	-444.99560546875	39.30829620361328	-31.886472702026367	-415.8519592285156	-0.0	-0.0	-0.0	-0.0	-0.0	-0.0	109205.375	9433.8798828125	7794.458984375
0.5525000000000001	-0.0	-0.0	-0.0	26.49770164489746	43.14401245117188	-451.35748291015625	44.71519088745117	-35.59646224975586	-427.3922119140625	-0.0	-0.0	-0.0	-0.0	-0.0	-0.0	112524.1015625	9270.92578125	9574.3447265625
0.5530000000000002	-0.0	-0.0	-0.0	28.54553604125977	44.92050552368164	-457.3680419921875	48.7028694152832	-39.13164138793945	-439.9436950683594	-0.0	-0.0	-0.0	-0.0	-0.0	-0.0	115499.984375	9433.9091796875	10466.224609375
0.5535000000000001	-0.0	-0.0	-0.0	28.99272918701172	46.255252838134766	-461.24755859375	50.03401565551758	-42.48442840576172	-450.7659301757813	-0.0	-0.0	-0.0	-0.0	-0.0	-0.0	118069.0390625	9396.455078125	10911.49609375
0.554	-0.0	-0.0	-0.0	29.173320770263672	47.76944732666016	-465.1262512207031	50.297481536865234	-45.929317474365234	-459.14447021484375	-0.0	-0.0	-0.0	-0.0	-0.0	-0.0	120113.84375	9645.16796875	10880.6298828125
0.5545000000000001	-0.0	-0.0	-0.0	28.282123565673828	48.31266021728516	-466.2006530761719	47.98933792114258	-47.69735336303711	-467.1612548828125	-0.0	-0.0	-0.0	-0.0	-0.0	-0.0	121471.1875	10216.513671875	10255.6513671875
0.5550000000000002	-0.0	-0.0	-0.0	27.56604766845703	49.64738464355469	-466.5610961914063	43.82312774658203	-49.107234954833984	-466.8232116699219	-0.0	-0.0	-0.0	-0.0	-0.0	-0.0	122407.0078125	10106.6923828125	9302.1396484375
0.5555000000000001	-0.0	-0.0	-0.0	25.34235572814941	50.44499206542969	-468.3017272949219	39.29635238647461	-49.45919799804688	-468.5577392578125	-0.0	-0.0	-0.0	-0.0	-0.0	-0.0	122295.796875	11075.5283203125	7757.27587890625
0.556	-0.0	-0.0	-0.0	23.199705123901367	51.1558837890625	-465.5029602050781	34.50640869140625	-48.929954528808594	-466.1153869628906	-0.0	-0.0	-0.0	-0.0	-0.0	-0.0	121868.1875	11856.1884765625	6330.4658203125
0.5565000000000001	-0.0	-0.0	-0.0	21.05475234985352	50.53801345825195	-464.431640625	28.563396453857425	-48.39991760253906	-462.9721374511719	-0.0	-0.0	-0.0	-0.0	-0.0	-0.0	120582.5390625	12225.9619140625	4843.1357421875
0.5570000000000002	-0.0	-0.0	-0.0	18.64725112915039	50.53806686401367	-460.2291870117188	23.241140365600582	-47.6934700012207	-457.0380554199219	-0.0	-0.0	-0.0	-0.0	-0.0	-0.0	119020.3515625	12919.7998046875	3296.76025390625
0.5575000000000001	-0.0	-0.0	-0.0	16.419551849365234	50.091285705566406	-455.9934692382813	17.919227600097656	-46.89877700805664	-451.4520263671875	-0.0	-0.0	-0.0	-0.0	-0.0	-0.0	117520.0859375	13728.755859375	1721.3021240234375
0.558	-0.0	-0.0	-0.0	13.654284477233888	50.08114242553711	-451.7573547363281	13.217989921569824	-45.66233825683594	-444.1210021972656	-0.0	-0.0	-0.0	-0.0	-0.0	-0.0	115664.125	14572.3125	442.7709045410156
0.5585000000000001	-0.0	-0.0	-0.0	11.690550804138184	48.75565719604492	-449.2134094238281	9.492589950561523	-44.337684631347656	-436.43951416015625	-0.0	-0.0	-0.0	-0.0	-0.0	-0.0	113868.90625	15062.2919921875	-568.1497802734375
0.5590000000000002	-0.0	-0.0	-0.0	9.466126441955566	47.594234466552734	-440.82958984375	6.4766058921813965	-43.5417366027832	-430.8519592285156	-0.0	-0.0	-0.0	-0.0	-0.0	-0.0	111708.84375	15185.9873046875	-1519.17529296875
0.5595000000000001	-0.0	-0.0	-0.0	7.93826961517334	46.70286560058594	-436.8836059570313	4.524250030517578	-41.688453674316406	-423.86761474609375	-0.0	-0.0	-0.0	-0.0	-0.0	-0.0	109356.859375	16005.619140625	-2172.568603515625
0.56	-0.0	-0.0	-0.0	6.249300479888916	45.18911743164063	-429.8441162109375	2.484426975250244	-40.8038330078125	-415.4945373535156	-0.0	-0.0	-0.0	-0.0	-0.0	-0.0	107519.2421875	16181.9326171875	-2796.40234375
0.5605000000000001	-0.0	-0.0	-0.0	4.379306793212891	44.21506881713867	-423.1348571777344	0.9771753549575806	-39.21617889404297	-407.1147766113281	-0.0	-0.0	-0.0	-0.0	-0.0	-0.0	105316.03125	16271.81640625	-3390.285888671875
0.5610000000000002	-0.0	-0.0	-0.0	2.4268760681152344	43.048336029052734	-419.597412109375	-0.1762386560440063	-38.06822204589844	-399.7801818847656	-0.0	-0.0	-0.0	-0.0	-0.0	-0.0	103593.34375	16669.59375	-3747.068115234375
0.5615000000000001	-0.0	-0.0	-0.0	1.1580055952072144	41.53649520874024	-412.894775390625	-1.4184305667877195	-36.831085205078125	-393.8393249511719	-0.0	-0.0	-0.0	-0.0	-0.0	-0.0	101673.5703125	17007.275390625	-3955.523681640625
0.562	-0.0	-0.0	-0.0	-0.5226955413818359	40.63987731933594	-407.2591247558594	-2.2177696228027344	-35.420196533203125	-386.1722106933594	-0.0	-0.0	-0.0	-0.0	-0.0	-0.0	99939.8125	17018.515625	-4193.5615234375
0.5625000000000001	-0.0	-0.0	-0.0	-1.871570110321045	39.30096435546875	-405.4432373046875	-3.104287624359131	-34.448394775390625	-381.271240234375	-0.0	-0.0	-0.0	-0.0	-0.0	-0.0	98295.6640625	17028.59765625	-4490.2275390625
0.5630000000000002	-0.0	-0.0	-0.0	-3.386143922805786	38.159366607666016	-399.4846801757813	-3.990652084350586	-33.21160888671875	-374.642333984375	-0.0	-0.0	-0.0	-0.0	-0.0	-0.0	96310.8828125	17153.39453125	-4875.06201171875
0.5635000000000001	-0.0	-0.0	-0.0	-4.539777755737305	36.90396499633789	-396.6368713378906	-5.3226470947265625	-32.23451232910156	-367.6681823730469	-0.0	-0.0	-0.0	-0.0	-0.0	-0.0	94862.9453125	17079.572265625	-5113.455078125
0.5640000000000001	-0.0	-0.0	-0.0	-4.906578063964844	36.191036224365234	-393.8199768066406	-5.677490234375	-31.09392547607422	-362.7623596191406	-0.0	-0.0	-0.0	-0.0	-0.0	-0.0	93152.8984375	17521.76171875	-5379.81298828125
0.5645000000000001	-0.0	-0.0	-0.0	-5.002161502838135	35.478145599365234	-394.064697265625	-6.829868316650391	-30.55844497680664	-356.4872131347656	-0.0	-0.0	-0.0	-0.0	-0.0	-0.0	91794.5546875	17342.462890625	-5500.17822265625
0.5650000000000002	-0.0	-0.0	-0.0	-5.787781715393066	34.9412956237793	-389.9365539550781	-7.630044937133789	-30.202362060546875	-352.9887084960937	-0.0	-0.0	-0.0	-0.0	-0.0	-0.0	90650.2109375	17991.400390625	-5797.892578125
0.5655000000000001	-0.0	-0.0	-0.0	-5.707215309143066	34.141456604003906	-389.1774597167969	-8.25308609008789	-29.67311668395996	-349.159423828125	-0.0	-0.0	-0.0	-0.0	-0.0	-0.0	89760.9140625	18013.4453125	-6066.20068359375
0.5660000000000001	-0.0	-0.0	-0.0	-5.446484088897705	34.038536071777344	-390.2730407714844	-9.48358917236328	-29.933677673339844	-346.7159118652344	-0.0	-0.0	-0.0	-0.0	-0.0	-0.0	88784.296875	18294.42578125	-6360.3291015625
0.5665000000000001	-0.0	-0.0	-0.0	-6.146018505096436	33.9610595703125	-390.6546325683594	-9.931156158447266	-29.941051483154297	-345.6776123046875	-0.0	-0.0	-0.0	-0.0	-0.0	-0.0	88582.8203125	18557.322265625	-6511.46484375
0.5670000000000002	-0.0	-0.0	-0.0	-5.193840026855469	33.3543815612793	-394.1488037109375	-10.467872619628906	-29.67253303527832	-344.26348876953125	-0.0	-0.0	-0.0	-0.0	-0.0	-0.0	88430.5546875	18648.05859375	-6689.78857421875
0.5675000000000001	-0.0	-0.0	-0.0	-5.184282302856445	33.808101654052734	-394.1787109375	-11.178812980651855	-30.37641906738281	-342.8570251464844	-0.0	-0.0	-0.0	-0.0	-0.0	-0.0	88272.09375	18899.291015625	-6926.12939453125
0.5680000000000001	-0.0	-0.0	-0.0	-5.092721939086914	34.15237808227539	-397.66021728515625	-11.35890769958496	-29.76701545715332	-343.5703430175781	-0.0	-0.0	-0.0	-0.0	-0.0	-0.0	88110.6875	19005.03515625	-6955.71142578125
0.5685000000000001	-0.0	-0.0	-0.0	-4.914530754089356	34.32050704956055	-398.7716674804688	-11.618341445922852	-30.203258514404297	-345.29461669921875	-0.0	-0.0	-0.0	-0.0	-0.0	-0.0	88070.140625	19219.275390625	-6958.24658203125
